<?xml version="1.0" encoding="UTF-8" standalone="no"?><!DOCTYPE svg PUBLIC "-//W3C//DTD SVG 1.1//EN" "http://www.w3.org/Graphics/SVG/1.1/DTD/svg11.dtd"><svg width="100%" height="100%" viewBox="0 0 831 478" version="1.1" xmlns="http://www.w3.org/2000/svg" xmlns:xlink="http://www.w3.org/1999/xlink" xml:space="preserve" xmlns:serif="http://www.serif.com/" style="fill-rule:evenodd;clip-rule:evenodd;stroke-linejoin:round;stroke-miterlimit:1.41421;"><rect id="Artboard1" x="0" y="0" width="831" height="478" style="fill:none;"/><g><path d="M108.45,144.922c0,-5.337 -1.138,-9.979 -3.408,-13.937c-2.275,-3.95 -5.338,-7.263 -9.192,-9.934c-3.858,-2.666 -8.258,-4.691 -13.196,-6.079c-4.942,-1.379 -10.083,-2.075 -15.421,-2.075l-42.7,0l0,72.946l47.446,0c4.742,0 9.288,-0.546 13.642,-1.633c4.341,-1.084 8.2,-2.817 11.562,-5.188c3.359,-2.371 6.079,-5.383 8.154,-9.046c2.075,-3.654 3.113,-8.05 3.113,-13.191l0,-11.863Zm-83.917,-51.596l40.329,0c4.746,0 9.292,-0.687 13.638,-2.075c4.346,-1.379 8.254,-3.358 11.717,-5.929c3.454,-2.567 6.175,-5.733 8.154,-9.492c1.971,-3.75 2.962,-8.004 2.962,-12.75l0,-6.525c0,-11.266 -3.408,-19.22 -10.229,-23.866c-6.821,-4.642 -15.567,-6.967 -26.242,-6.967l-40.329,0l0,67.604Zm92.071,-6.966c-4.846,7.216 -11.021,12.208 -18.533,14.975c10.083,3.754 18.091,9.291 24.021,16.604c5.929,7.316 8.895,16.604 8.895,27.871l0,10.675c0,8.108 -1.387,15.27 -4.15,21.5c-2.77,6.225 -6.629,11.466 -11.566,15.716c-4.942,4.254 -10.675,7.463 -17.2,9.638c-6.521,2.175 -13.638,3.258 -21.35,3.258l-74.721,0l0,-201.633l67.608,0c7.709,0 14.871,1.141 21.496,3.412c6.621,2.271 12.35,5.634 17.196,10.079c4.842,4.446 8.65,9.888 11.421,16.309c2.762,6.425 4.15,13.691 4.15,21.791l0,6.525c0,8.305 -2.425,16.063 -7.267,23.28" style="fill:#f9fafa;fill-rule:nonzero;"/><path d="M194.438,98.368l51.892,0c4.346,0 8.646,-0.541 12.896,-1.633c4.25,-1.083 8.008,-2.763 11.271,-5.042c3.262,-2.266 5.929,-5.083 8.004,-8.446c2.075,-3.362 3.112,-7.216 3.112,-11.566l0,-15.717c0,-4.546 -0.987,-8.696 -2.962,-12.454c-1.979,-3.75 -4.596,-6.967 -7.859,-9.638c-3.262,-2.666 -7.02,-4.691 -11.266,-6.079c-4.254,-1.379 -8.654,-2.075 -13.196,-2.075l-51.892,0l0,72.65Zm97.113,4.3c-8.404,7.613 -18.829,12.504 -31.284,14.675l49.517,89.254l-25.5,0l-48.333,-87.475l-41.513,0l0,87.475l-22.537,0l0,-201.633l74.725,0c8.104,0 15.666,1.138 22.683,3.408c7.017,2.275 13.092,5.588 18.238,9.934c5.137,4.354 9.191,9.687 12.158,16.012c2.962,6.329 4.446,13.542 4.446,21.646l0,15.717c0,13.046 -4.204,23.379 -12.6,30.987" style="fill:#f9fafa;fill-rule:nonzero;"/><path d="M476.728,4.964l22.533,0l0,139.958c0,10.675 -1.975,20.067 -5.933,28.171c-3.954,8.104 -9.392,14.875 -16.308,20.309c-6.921,5.441 -14.971,9.487 -24.163,12.158c-9.196,2.671 -19.125,4.004 -29.8,4.004c-10.875,0 -21.008,-1.333 -30.396,-4.004c-9.391,-2.671 -17.596,-6.671 -24.612,-12.008c-7.017,-5.338 -12.5,-12.055 -16.454,-20.167c-3.959,-8.1 -5.934,-17.588 -5.934,-28.463l0,-139.958l22.538,0l0,139.958c0,7.517 1.433,14.038 4.3,19.571c2.862,5.534 6.766,10.079 11.712,13.638c4.938,3.558 10.721,6.229 17.346,8.008c6.621,1.779 13.688,2.667 21.2,2.667c7.121,0 13.942,-0.938 20.463,-2.817c6.52,-1.875 12.25,-4.642 17.2,-8.3c4.937,-3.658 8.895,-8.254 11.858,-13.787c2.967,-5.538 4.45,-11.863 4.45,-18.98l0,-139.958Z" style="fill:#f9fafa;fill-rule:nonzero;"/><path d="M612.828,22.754c-6.721,0 -13.1,0.992 -19.125,2.967c-6.033,1.979 -11.366,4.796 -16.016,8.45c-4.646,3.662 -8.3,8.108 -10.967,13.342c-2.671,5.241 -4.004,11.225 -4.004,17.941l0,80.654c0,7.117 1.283,13.342 3.854,18.68c2.567,5.337 6.125,9.787 10.675,13.345c4.546,3.559 9.883,6.225 16.012,8.005c6.125,1.779 12.75,2.67 19.863,2.67c10.279,0 20.021,-1.383 29.208,-4.154c9.196,-2.766 17.246,-7.116 24.171,-13.046l10.375,17.2c-8.896,7.909 -18.633,13.342 -29.208,16.309c-10.575,2.966 -22.084,4.446 -34.546,4.446c-10.275,0 -19.863,-1.384 -28.758,-4.15c-8.896,-2.767 -16.605,-6.821 -23.13,-12.159c-6.525,-5.337 -11.666,-11.958 -15.42,-19.866c-3.755,-7.905 -5.634,-17 -5.634,-27.28l0,-80.654c0,-9.883 1.929,-18.729 5.784,-26.537c3.854,-7.809 9.091,-14.429 15.716,-19.867c6.617,-5.437 14.329,-9.637 23.129,-12.604c8.792,-2.963 18.134,-4.446 28.021,-4.446c14.234,0 26.392,2.125 36.471,6.375c10.083,4.25 19.171,10.725 27.283,19.421l-13.05,16.012c-6.329,-6.525 -13.691,-11.662 -22.091,-15.416c-8.404,-3.754 -17.938,-5.638 -28.613,-5.638" style="fill:#f9fafa;fill-rule:nonzero;"/><path d="M735.582,112.897l0,72.946l89.846,0l0,20.754l-112.379,0l0,-201.633l105.562,0l0,20.758l-83.029,0l0,67.308l69.688,0l0,19.867l-69.688,0Z" style="fill:#f9fafa;fill-rule:nonzero;"/><path d="M24.832,362.527l51.891,0c4.346,0 8.646,-0.542 12.896,-1.634c4.25,-1.079 8.008,-2.766 11.271,-5.041c3.262,-2.267 5.929,-5.084 8.004,-8.45c2.075,-3.359 3.113,-7.209 3.113,-11.563l0,-15.716c0,-4.546 -0.988,-8.696 -2.963,-12.45c-1.979,-3.755 -4.596,-6.971 -7.858,-9.642c-3.263,-2.667 -7.021,-4.688 -11.267,-6.079c-4.254,-1.38 -8.654,-2.075 -13.196,-2.075l-51.891,0l0,72.65Zm97.112,4.3c-8.404,7.608 -18.829,12.5 -31.283,14.675l49.516,89.258l-25.5,0l-48.333,-87.479l-41.512,0l0,87.479l-22.538,0l0,-201.638l74.725,0c8.104,0 15.667,1.138 22.683,3.409c7.017,2.275 13.092,5.587 18.238,9.933c5.137,4.35 9.192,9.688 12.158,16.013c2.963,6.329 4.446,13.541 4.446,21.645l0,15.717c0,13.046 -4.204,23.379 -12.6,30.988" style="fill:#f9fafa;fill-rule:nonzero;"/><rect x="183.769" y="269.123" width="22.533" height="201.637" style="fill:#f9fafa;"/><path d="M328.17,286.912c-6.725,0 -13.1,0.992 -19.125,2.967c-6.033,1.979 -11.37,4.796 -16.012,8.45c-4.646,3.662 -8.304,8.108 -10.971,13.341c-2.671,5.242 -4.004,11.225 -4.004,17.942l0,80.654c0,7.117 1.283,13.342 3.854,18.679c2.567,5.338 6.125,9.788 10.675,13.346c4.546,3.559 9.883,6.225 16.013,8.009c6.125,1.775 12.75,2.666 19.866,2.666c10.275,0 20.017,-1.383 29.209,-4.154c9.191,-2.767 17.241,-7.117 24.166,-13.046l10.379,17.2c-8.9,7.909 -18.637,13.342 -29.208,16.309c-10.579,2.966 -22.092,4.445 -34.546,4.445c-10.279,0 -19.866,-1.383 -28.762,-4.15c-8.896,-2.766 -16.604,-6.82 -23.129,-12.158c-6.525,-5.337 -11.667,-11.954 -15.417,-19.867c-3.758,-7.904 -5.638,-17 -5.638,-27.279l0,-80.654c0,-9.883 1.93,-18.725 5.784,-26.537c3.854,-7.809 9.091,-14.43 15.716,-19.867c6.621,-5.433 14.33,-9.638 23.13,-12.604c8.791,-2.963 18.133,-4.446 28.02,-4.446c14.234,0 26.388,2.125 36.471,6.375c10.084,4.25 19.171,10.725 27.279,19.421l-13.045,16.012c-6.33,-6.525 -13.692,-11.662 -22.092,-15.416c-8.404,-3.759 -17.938,-5.638 -28.613,-5.638" style="fill:#f9fafa;fill-rule:nonzero;"/><path d="M561.526,269.123l22.538,0l0,201.637l-22.538,0l0,-87.179l-106.746,0l0,87.179l-22.533,0l0,-201.637l22.533,0l0,93.7l106.746,0l0,-93.7Z" style="fill:#f9fafa;fill-rule:nonzero;"/></g></svg>